<?xml version="1.0" encoding="UTF-8"?>
<svg width="1200pt" height="1200pt" version="1.1" fill="#fff" viewBox="0 0 1200 1200" xmlns="http://www.w3.org/2000/svg">
 <path d="m350 1200c-26.523 0.003906-51.965-10.531-70.719-29.285-18.758-18.754-29.293-44.191-29.293-70.715 0-26.527 10.539-51.961 29.293-70.715l429.3-429.29-429.3-429.29c-25.199-25.277-35.02-62.07-25.766-96.543 9.2539-34.473 36.184-61.402 70.656-70.656 34.473-9.2539 71.266 0.5625 96.543 25.766l500 500c18.75 18.758 29.285 44.191 29.285 70.715 0 26.523-10.535 51.961-29.285 70.715l-500 500c-18.738 18.781-44.188 29.316-70.715 29.285z"/>
</svg>
